<?xml version="1.0" encoding="utf-8"?>
<svg xmlns="http://www.w3.org/2000/svg" viewBox="0 0 500 500">
  <path d="M 13.869 43.051 L 13.414 460.472 L 17.923 475.397 L 36.314 482.454 L 470.385 481.588 L 486.339 473.334 L 493.101 461.142 L 493.019 41.239 L 480.592 30.819 L 462.46 28.836 L 461.46 28.836 L 461.46 27.836 L 43.46 27.836 L 23.951 30.815 L 13.869 43.051 Z M 45.616 454.586 L 43.46 57.836 L 58.46 57.836 L 462.46 57.836 L 464.894 454.984 L 45.616 454.586 Z" style="stroke-width: 1; fill: rgb(255, 255, 255);"/>
  <path d="M 79.13 356.313 L 80.844 356.313 L 80.844 357.492 L 82.555 357.492 L 82.555 358.675 L 84.269 358.675 L 84.269 359.857 L 85.984 359.857 L 85.984 361.038 L 87.694 361.038 L 87.694 362.22 L 89.409 362.22 L 89.409 363.401 L 91.123 363.401 L 91.123 364.583 L 92.835 364.583 L 92.835 365.764 L 94.549 365.764 L 94.549 366.946 L 96.261 366.946 L 96.261 368.127 L 97.976 368.127 L 97.976 369.309 L 101.401 369.309 L 101.401 370.49 L 103.116 370.49 L 103.116 371.671 L 104.829 371.671 L 104.829 372.855 L 106.539 372.855 L 106.539 374.034 L 109.968 374.034 L 109.968 375.216 L 111.679 375.216 L 111.679 376.398 L 113.395 376.398 L 113.395 377.579 L 116.819 377.579 L 116.819 378.761 L 118.534 378.761 L 118.534 379.942 L 121.96 379.942 L 121.96 381.124 L 123.673 381.124 L 123.673 382.305 L 127.1 382.305 L 127.1 383.488 L 128.812 383.488 L 128.812 384.667 L 132.241 384.667 L 132.241 385.849 L 135.665 385.849 L 135.665 387.032 L 139.092 387.032 L 139.092 388.211 L 142.52 388.211 L 142.52 389.395 L 145.946 389.395 L 145.946 390.576 L 149.371 390.576 L 149.371 391.757 L 152.798 391.757 L 152.798 392.939 L 156.226 392.939 L 156.226 394.12 L 161.366 394.12 L 161.366 395.301 L 166.503 395.301 L 166.503 396.484 L 169.932 396.484 L 169.932 397.665 L 175.071 397.665 L 175.071 398.844 L 181.922 398.844 L 181.922 400.028 L 188.778 400.028 L 188.778 401.209 L 197.341 401.209 L 197.341 402.391 L 205.908 402.391 L 205.908 403.573 L 219.613 403.573 L 219.613 404.754 L 245.314 404.754 L 245.314 405.935 L 271.011 405.935 L 271.011 404.754 L 296.709 404.754 L 296.709 403.573 L 308.703 403.573 L 308.703 402.391 L 320.695 402.391 L 320.695 401.209 L 327.549 401.209 L 327.549 400.028 L 334.399 400.028 L 334.399 398.844 L 341.253 398.844 L 341.253 397.665 L 346.395 397.665 L 346.395 396.484 L 351.533 396.484 L 351.533 395.301 L 356.673 395.301 L 356.673 394.12 L 360.097 394.12 L 360.097 392.939 L 365.238 392.939 L 365.238 391.757 L 368.664 391.757 L 368.664 390.576 L 372.09 390.576 L 372.09 389.395 L 375.519 389.395 L 375.519 388.211 L 377.23 388.211 L 377.23 387.032 L 380.66 387.032 L 380.66 385.849 L 384.085 385.849 L 384.085 384.667 L 385.797 384.667 L 385.797 383.488 L 389.224 383.488 L 389.224 382.305 L 390.937 382.305 L 390.937 381.124 L 392.65 381.124 L 392.65 379.942 L 396.077 379.942 L 396.077 378.761 L 397.79 378.761 L 397.79 377.579 L 399.505 377.579 L 399.505 376.398 L 401.216 376.398 L 401.216 375.216 L 402.93 375.216 L 402.93 374.034 L 404.641 374.034 L 404.641 372.855 L 406.354 372.855 L 406.354 371.671 L 408.071 371.671 L 408.071 370.49 L 409.782 370.49 L 409.782 369.309 L 411.494 369.309 L 411.494 366.946 L 413.211 366.946 L 413.211 365.764 L 414.922 365.764 L 414.922 364.583 L 416.634 364.583 L 416.634 362.22 L 418.348 362.22 L 418.348 359.857 L 420.062 359.857 L 420.062 358.675 L 421.774 358.675 L 421.774 356.313 L 423.487 356.313 L 423.487 353.95 L 425.2 353.95 L 425.2 350.405 L 426.914 350.405 L 426.914 348.041 L 428.627 348.041 L 428.627 344.496 L 430.34 344.496 L 430.34 339.772 L 432.056 339.772 L 432.056 335.046 L 433.766 335.046 L 433.766 326.776 L 435.48 326.776 L 435.48 300.781 L 433.766 300.781 L 433.766 294.875 L 432.056 294.875 L 432.056 290.148 L 430.34 290.148 L 430.34 287.784 L 428.627 287.784 L 428.627 284.242 L 426.914 284.242 L 426.914 281.877 L 425.2 281.877 L 425.2 279.514 L 423.487 279.514 L 423.487 277.153 L 421.774 277.153 L 421.774 275.97 L 420.062 275.97 L 420.062 273.605 L 418.348 273.605 L 418.348 272.426 L 416.634 272.426 L 416.634 270.063 L 414.922 270.063 L 414.922 268.882 L 413.211 268.882 L 413.211 267.7 L 411.494 267.7 L 411.494 266.518 L 409.782 266.518 L 409.782 264.156 L 408.071 264.156 L 408.071 262.973 L 406.354 262.973 L 406.354 261.793 L 404.641 261.793 L 404.641 260.61 L 401.216 260.61 L 401.216 259.428 L 399.505 259.428 L 399.505 258.249 L 397.79 258.249 L 397.79 257.068 L 396.077 257.068 L 396.077 255.884 L 394.364 255.884 L 394.364 254.704 L 392.65 254.704 L 392.65 253.522 L 389.224 253.522 L 389.224 252.34 L 387.509 252.34 L 387.509 251.161 L 384.085 251.161 L 384.085 249.978 L 382.37 249.978 L 382.37 248.796 L 378.944 248.796 L 378.944 247.615 L 375.519 247.615 L 375.519 246.432 L 372.09 246.432 L 372.09 245.251 L 368.664 245.251 L 368.664 244.068 L 366.952 244.068 L 366.952 242.889 L 363.525 242.889 L 363.525 241.707 L 358.385 241.707 L 358.385 240.526 L 354.957 240.526 L 354.957 239.344 L 351.533 239.344 L 351.533 238.163 L 348.105 238.163 L 348.105 236.981 L 342.969 236.981 L 342.969 235.799 L 339.539 235.799 L 339.539 234.619 L 334.399 234.619 L 334.399 233.436 L 329.261 233.436 L 329.261 232.255 L 324.123 232.255 L 324.123 231.073 L 318.982 231.073 L 318.982 229.891 L 313.841 229.891 L 313.841 228.711 L 308.703 228.711 L 308.703 227.529 L 303.562 227.529 L 303.562 226.348 L 296.709 226.348 L 296.709 225.165 L 291.569 225.165 L 291.569 223.985 L 284.717 223.985 L 284.717 222.803 L 279.576 222.803 L 279.576 221.622 L 272.723 221.622 L 272.723 220.441 L 265.87 220.441 L 265.87 219.257 L 260.73 219.257 L 260.73 218.076 L 252.166 218.076 L 252.166 216.895 L 245.314 216.895 L 245.314 215.713 L 236.747 215.713 L 236.747 214.532 L 229.893 214.532 L 229.893 213.352 L 224.754 213.352 L 224.754 212.169 L 217.9 212.169 L 217.9 210.988 L 212.761 210.988 L 212.761 209.808 L 207.621 209.808 L 207.621 208.626 L 204.194 208.626 L 204.194 207.444 L 199.056 207.444 L 199.056 206.263 L 195.628 206.263 L 195.628 205.08 L 193.916 205.08 L 193.916 203.899 L 190.488 203.899 L 190.488 202.718 L 187.064 202.718 L 187.064 201.537 L 185.347 201.537 L 185.347 200.356 L 183.636 200.356 L 183.636 199.174 L 181.922 199.174 L 181.922 197.992 L 180.211 197.992 L 180.211 196.812 L 178.494 196.812 L 178.494 195.63 L 176.784 195.63 L 176.784 193.266 L 175.071 193.266 L 175.071 192.085 L 173.357 192.085 L 173.357 188.541 L 171.644 188.541 L 171.644 186.178 L 169.932 186.178 L 169.932 169.638 L 171.644 169.638 L 171.644 164.911 L 173.357 164.911 L 173.357 162.548 L 175.071 162.548 L 175.071 160.183 L 176.784 160.183 L 176.784 157.822 L 178.494 157.822 L 178.494 156.641 L 180.211 156.641 L 180.211 155.46 L 181.922 155.46 L 181.922 154.277 L 183.636 154.277 L 183.636 153.095 L 185.347 153.095 L 185.347 151.914 L 187.064 151.914 L 187.064 150.734 L 188.778 150.734 L 188.778 149.551 L 192.202 149.551 L 192.202 148.369 L 195.628 148.369 L 195.628 147.187 L 199.056 147.187 L 199.056 146.006 L 204.194 146.006 L 204.194 144.825 L 207.621 144.825 L 207.621 143.644 L 216.187 143.644 L 216.187 142.463 L 223.039 142.463 L 223.039 141.28 L 238.46 141.28 L 238.46 140.1 L 267.587 140.1 L 267.587 141.28 L 277.864 141.28 L 277.864 142.463 L 284.717 142.463 L 284.717 143.644 L 289.858 143.644 L 289.858 144.825 L 293.282 144.825 L 293.282 146.006 L 296.709 146.006 L 296.709 147.187 L 300.136 147.187 L 300.136 148.369 L 303.562 148.369 L 303.562 149.551 L 306.988 149.551 L 306.988 150.734 L 310.415 150.734 L 310.415 151.914 L 312.129 151.914 L 312.129 153.095 L 315.555 153.095 L 315.555 154.277 L 317.267 154.277 L 317.267 155.46 L 320.695 155.46 L 320.695 156.641 L 322.408 156.641 L 322.408 157.822 L 324.123 157.822 L 324.123 159.005 L 325.832 159.005 L 325.832 160.183 L 329.261 160.183 L 329.261 161.364 L 330.971 161.364 L 330.971 162.548 L 332.687 162.548 L 332.687 163.728 L 334.399 163.728 L 334.399 164.911 L 336.112 164.911 L 336.112 166.093 L 337.827 166.093 L 337.827 167.273 L 339.539 167.273 L 339.539 168.456 L 341.253 168.456 L 341.253 170.818 L 342.969 170.818 L 342.969 172 L 344.679 172 L 344.679 173.181 L 346.395 173.181 L 346.395 174.361 L 348.105 174.361 L 348.105 175.543 L 349.818 175.543 L 349.818 177.906 L 351.533 177.906 L 351.533 179.088 L 353.245 179.088 L 353.245 181.451 L 354.957 181.451 L 354.957 182.634 L 356.673 182.634 L 356.673 184.997 L 358.385 184.997 L 358.385 187.358 L 360.097 187.358 L 360.097 188.541 L 361.814 188.541 L 361.814 190.903 L 363.525 190.903 L 363.525 194.449 L 365.238 194.449 L 365.238 196.812 L 366.952 196.812 L 366.952 199.174 L 368.664 199.174 L 368.664 202.718 L 372.09 202.718 L 372.09 200.356 L 373.804 200.356 L 373.804 199.174 L 375.519 199.174 L 375.519 197.992 L 377.23 197.992 L 377.23 196.812 L 378.944 196.812 L 378.944 195.63 L 380.66 195.63 L 380.66 194.449 L 382.37 194.449 L 382.37 193.266 L 384.085 193.266 L 384.085 192.085 L 385.797 192.085 L 385.797 190.903 L 387.509 190.903 L 387.509 189.721 L 389.224 189.721 L 389.224 188.541 L 390.937 188.541 L 390.937 187.358 L 392.65 187.358 L 392.65 186.178 L 394.364 186.178 L 394.364 184.997 L 396.077 184.997 L 396.077 183.815 L 397.79 183.815 L 397.79 182.634 L 399.505 182.634 L 399.505 181.451 L 401.216 181.451 L 401.216 180.27 L 402.93 180.27 L 402.93 179.088 L 404.641 179.088 L 404.641 177.906 L 406.354 177.906 L 406.354 176.726 L 408.071 176.726 L 408.071 175.543 L 409.782 175.543 L 409.782 174.361 L 411.494 174.361 L 411.494 173.181 L 413.211 173.181 L 413.211 172 L 414.922 172 L 414.922 170.818 L 416.634 170.818 L 416.634 169.638 L 418.348 169.638 L 418.348 168.456 L 420.062 168.456 L 420.062 167.273 L 421.774 167.273 L 421.774 166.093 L 423.487 166.093 L 423.487 164.911 L 425.2 164.911 L 425.2 163.728 L 426.914 163.728 L 426.914 162.548 L 428.627 162.548 L 428.627 160.183 L 426.914 160.183 L 426.914 159.005 L 425.2 159.005 L 425.2 157.822 L 423.487 157.822 L 423.487 156.641 L 421.774 156.641 L 421.774 155.46 L 420.062 155.46 L 420.062 154.277 L 418.348 154.277 L 418.348 153.095 L 416.634 153.095 L 416.634 151.914 L 414.922 151.914 L 414.922 150.734 L 413.211 150.734 L 413.211 149.551 L 411.494 149.551 L 411.494 148.369 L 409.782 148.369 L 409.782 147.187 L 408.071 147.187 L 408.071 146.006 L 406.354 146.006 L 406.354 144.825 L 404.641 144.825 L 404.641 143.644 L 402.93 143.644 L 402.93 142.463 L 399.505 142.463 L 399.505 141.28 L 397.79 141.28 L 397.79 140.1 L 396.077 140.1 L 396.077 138.919 L 394.364 138.919 L 394.364 137.736 L 392.65 137.736 L 392.65 136.556 L 389.224 136.556 L 389.224 135.372 L 387.509 135.372 L 387.509 134.19 L 385.797 134.19 L 385.797 133.009 L 382.37 133.009 L 382.37 131.83 L 380.66 131.83 L 380.66 130.648 L 377.23 130.648 L 377.23 129.466 L 375.519 129.466 L 375.519 128.285 L 372.09 128.285 L 372.09 127.102 L 370.378 127.102 L 370.378 125.922 L 366.952 125.922 L 366.952 124.741 L 363.525 124.741 L 363.525 123.558 L 360.097 123.558 L 360.097 122.377 L 356.673 122.377 L 356.673 121.195 L 354.957 121.195 L 354.957 120.013 L 349.818 120.013 L 349.818 118.832 L 346.395 118.832 L 346.395 117.65 L 341.253 117.65 L 341.253 116.469 L 337.827 116.469 L 337.827 115.287 L 334.399 115.287 L 334.399 114.106 L 327.549 114.106 L 327.549 112.925 L 322.408 112.925 L 322.408 111.744 L 315.555 111.744 L 315.555 110.562 L 310.415 110.562 L 310.415 109.38 L 301.85 109.38 L 301.85 108.198 L 291.569 108.198 L 291.569 107.016 L 276.15 107.016 L 276.15 105.835 L 224.754 105.835 L 224.754 107.016 L 207.621 107.016 L 207.621 108.198 L 197.341 108.198 L 197.341 109.38 L 187.064 109.38 L 187.064 110.562 L 180.211 110.562 L 180.211 111.744 L 173.357 111.744 L 173.357 112.925 L 166.503 112.925 L 166.503 114.106 L 161.366 114.106 L 161.366 115.287 L 157.938 115.287 L 157.938 116.469 L 152.798 116.469 L 152.798 117.65 L 149.371 117.65 L 149.371 118.832 L 144.23 118.832 L 144.23 120.013 L 142.52 120.013 L 142.52 121.195 L 139.092 121.195 L 139.092 122.377 L 135.665 122.377 L 135.665 123.558 L 132.241 123.558 L 132.241 124.741 L 128.812 124.741 L 128.812 125.922 L 127.1 125.922 L 127.1 127.102 L 125.385 127.102 L 125.385 128.285 L 121.96 128.285 L 121.96 129.466 L 120.246 129.466 L 120.246 130.648 L 118.534 130.648 L 118.534 131.83 L 115.106 131.83 L 115.106 133.009 L 113.395 133.009 L 113.395 134.19 L 111.679 134.19 L 111.679 135.372 L 109.968 135.372 L 109.968 136.556 L 108.256 136.556 L 108.256 137.736 L 106.539 137.736 L 106.539 138.919 L 104.829 138.919 L 104.829 140.1 L 103.116 140.1 L 103.116 142.463 L 101.401 142.463 L 101.401 143.644 L 99.689 143.644 L 99.689 144.825 L 97.976 144.825 L 97.976 147.187 L 96.261 147.187 L 96.261 148.369 L 94.549 148.369 L 94.549 150.734 L 92.835 150.734 L 92.835 151.914 L 91.123 151.914 L 91.123 154.277 L 89.409 154.277 L 89.409 156.641 L 87.694 156.641 L 87.694 160.183 L 85.984 160.183 L 85.984 162.548 L 84.269 162.548 L 84.269 166.093 L 82.555 166.093 L 82.555 170.818 L 80.844 170.818 L 80.844 175.543 L 79.13 175.543 L 79.13 181.451 L 77.416 181.451 L 77.416 212.169 L 79.13 212.169 L 79.13 218.076 L 80.844 218.076 L 80.844 221.622 L 82.555 221.622 L 82.555 225.165 L 84.269 225.165 L 84.269 227.529 L 85.984 227.529 L 85.984 229.891 L 87.694 229.891 L 87.694 232.255 L 89.409 232.255 L 89.409 234.619 L 91.123 234.619 L 91.123 236.981 L 92.835 236.981 L 92.835 238.163 L 94.549 238.163 L 94.549 239.344 L 96.261 239.344 L 96.261 241.707 L 97.976 241.707 L 97.976 242.889 L 99.689 242.889 L 99.689 244.068 L 101.401 244.068 L 101.401 246.432 L 103.116 246.432 L 103.116 247.615 L 104.829 247.615 L 104.829 248.796 L 106.539 248.796 L 106.539 249.978 L 109.968 249.978 L 109.968 251.161 L 111.679 251.161 L 111.679 252.34 L 113.395 252.34 L 113.395 253.522 L 115.106 253.522 L 115.106 254.704 L 116.819 254.704 L 116.819 255.884 L 118.534 255.884 L 118.534 257.068 L 121.96 257.068 L 121.96 258.249 L 123.673 258.249 L 123.673 259.428 L 127.1 259.428 L 127.1 260.61 L 128.812 260.61 L 128.812 261.793 L 132.241 261.793 L 132.241 262.973 L 135.665 262.973 L 135.665 264.156 L 137.381 264.156 L 137.381 265.337 L 140.804 265.337 L 140.804 266.518 L 144.23 266.518 L 144.23 267.7 L 147.658 267.7 L 147.658 268.882 L 151.086 268.882 L 151.086 270.063 L 156.226 270.063 L 156.226 271.244 L 159.65 271.244 L 159.65 272.426 L 163.077 272.426 L 163.077 273.605 L 168.218 273.605 L 168.218 274.788 L 171.644 274.788 L 171.644 275.97 L 176.784 275.97 L 176.784 277.153 L 181.922 277.153 L 181.922 278.334 L 187.064 278.334 L 187.064 279.514 L 192.202 279.514 L 192.202 280.698 L 197.341 280.698 L 197.341 281.877 L 200.767 281.877 L 200.767 283.06 L 207.621 283.06 L 207.621 284.242 L 212.761 284.242 L 212.761 285.422 L 219.613 285.422 L 219.613 286.603 L 224.754 286.603 L 224.754 287.784 L 229.893 287.784 L 229.893 288.968 L 236.747 288.968 L 236.747 290.148 L 241.885 290.148 L 241.885 291.332 L 248.741 291.332 L 248.741 292.511 L 255.594 292.511 L 255.594 293.692 L 264.159 293.692 L 264.159 294.875 L 271.011 294.875 L 271.011 296.056 L 277.864 296.056 L 277.864 297.238 L 283.003 297.238 L 283.003 298.419 L 289.858 298.419 L 289.858 299.6 L 294.996 299.6 L 294.996 300.781 L 300.136 300.781 L 300.136 301.963 L 303.562 301.963 L 303.562 303.145 L 308.703 303.145 L 308.703 304.326 L 312.129 304.326 L 312.129 305.508 L 315.555 305.508 L 315.555 306.688 L 317.267 306.688 L 317.267 307.871 L 320.695 307.871 L 320.695 309.053 L 324.123 309.053 L 324.123 310.235 L 325.832 310.235 L 325.832 311.415 L 327.549 311.415 L 327.549 312.597 L 329.261 312.597 L 329.261 313.778 L 330.971 313.778 L 330.971 314.959 L 332.687 314.959 L 332.687 316.142 L 334.399 316.142 L 334.399 317.323 L 336.112 317.323 L 336.112 318.505 L 337.827 318.505 L 337.827 320.868 L 339.539 320.868 L 339.539 324.412 L 341.253 324.412 L 341.253 327.956 L 342.969 327.956 L 342.969 339.772 L 341.253 339.772 L 341.253 344.496 L 339.539 344.496 L 339.539 348.041 L 337.827 348.041 L 337.827 350.405 L 336.112 350.405 L 336.112 352.768 L 334.399 352.768 L 334.399 353.95 L 332.687 353.95 L 332.687 355.13 L 330.971 355.13 L 330.971 356.313 L 329.261 356.313 L 329.261 357.492 L 327.549 357.492 L 327.549 358.675 L 325.832 358.675 L 325.832 359.857 L 322.408 359.857 L 322.408 361.038 L 320.695 361.038 L 320.695 362.22 L 317.267 362.22 L 317.267 363.401 L 315.555 363.401 L 315.555 364.583 L 310.415 364.583 L 310.415 365.764 L 306.988 365.764 L 306.988 366.946 L 301.85 366.946 L 301.85 368.127 L 294.996 368.127 L 294.996 369.309 L 286.43 369.309 L 286.43 370.49 L 272.723 370.49 L 272.723 371.671 L 241.885 371.671 L 241.885 370.49 L 231.608 370.49 L 231.608 369.309 L 226.468 369.309 L 226.468 368.127 L 221.328 368.127 L 221.328 366.946 L 216.187 366.946 L 216.187 365.764 L 212.761 365.764 L 212.761 364.583 L 209.335 364.583 L 209.335 363.401 L 204.194 363.401 L 204.194 362.22 L 200.767 362.22 L 200.767 361.038 L 197.341 361.038 L 197.341 359.857 L 195.628 359.857 L 195.628 358.675 L 192.202 358.675 L 192.202 357.492 L 190.488 357.492 L 190.488 356.313 L 187.064 356.313 L 187.064 355.13 L 183.636 355.13 L 183.636 353.95 L 181.922 353.95 L 181.922 352.768 L 180.211 352.768 L 180.211 351.585 L 176.784 351.585 L 176.784 350.405 L 175.071 350.405 L 175.071 349.224 L 173.357 349.224 L 173.357 348.041 L 171.644 348.041 L 171.644 346.861 L 169.932 346.861 L 169.932 345.68 L 166.503 345.68 L 166.503 344.496 L 164.792 344.496 L 164.792 343.316 L 163.077 343.316 L 163.077 342.134 L 161.366 342.134 L 161.366 340.953 L 159.65 340.953 L 159.65 339.772 L 157.938 339.772 L 157.938 337.408 L 156.226 337.408 L 156.226 336.226 L 154.511 336.226 L 154.511 335.046 L 152.798 335.046 L 152.798 333.863 L 151.086 333.863 L 151.086 332.682 L 149.371 332.682 L 149.371 331.501 L 147.658 331.501 L 147.658 329.137 L 145.946 329.137 L 145.946 327.956 L 144.23 327.956 L 144.23 326.776 L 142.52 326.776 L 142.52 324.412 L 140.804 324.412 L 140.804 323.231 L 139.092 323.231 L 139.092 320.868 L 137.381 320.868 L 137.381 318.505 L 135.665 318.505 L 135.665 316.142 L 133.952 316.142 L 133.952 313.778 L 132.241 313.778 L 132.241 311.415 L 130.526 311.415 L 130.526 309.053 L 127.1 309.053 L 127.1 310.235 L 125.385 310.235 L 125.385 311.415 L 123.673 311.415 L 123.673 312.597 L 121.96 312.597 L 121.96 313.778 L 120.246 313.778 L 120.246 314.959 L 118.534 314.959 L 118.534 316.142 L 116.819 316.142 L 116.819 317.323 L 115.106 317.323 L 115.106 318.505 L 113.395 318.505 L 113.395 319.685 L 111.679 319.685 L 111.679 320.868 L 109.968 320.868 L 109.968 322.049 L 108.256 322.049 L 108.256 323.231 L 106.539 323.231 L 106.539 324.412 L 104.829 324.412 L 104.829 325.592 L 103.116 325.592 L 103.116 326.776 L 101.401 326.776 L 101.401 327.956 L 99.689 327.956 L 99.689 329.137 L 97.976 329.137 L 97.976 330.319 L 96.261 330.319 L 96.261 331.501 L 94.549 331.501 L 94.549 332.682 L 92.835 332.682 L 92.835 333.863 L 91.123 333.863 L 91.123 335.046 L 89.409 335.046 L 89.409 336.226 L 87.694 336.226 L 87.694 337.408 L 85.984 337.408 L 85.984 338.59 L 84.269 338.59 L 84.269 339.772 L 82.555 339.772 L 82.555 340.953 L 80.844 340.953 L 80.844 342.134 L 79.13 342.134 L 79.13 343.316 L 77.416 343.316 L 77.416 344.496 L 75.703 344.496 L 75.703 345.68 L 73.99 345.68 L 73.99 346.861 L 72.276 346.861 L 72.276 348.041 L 70.563 348.041 L 70.563 351.585 L 72.276 351.585 L 72.276 352.768 L 73.99 352.768 L 73.99 353.95 L 75.703 353.95 L 75.703 355.13 L 79.13 355.13 L 79.13 356.313 Z" style="stroke-width: 1; fill: rgb(255, 255, 255);"/>
</svg>